<svg width="573" height="416" viewBox="0 0 573 416" fill="none" xmlns="http://www.w3.org/2000/svg">
<path stroke-width="3" d="M204.867 385.02L245.944 398.417M184.823 175.554L166.975 169.838L150.186 153.267L137.203 136.443L128.256 119.78L123.449 103.658L122.771 88.4321L126.117 74.414L133.304 61.8678L144.057 51.0121L158.063 42.0194L174.968 35.0161L194.356 30.0827L215.815 27.2653L238.917 26.5753L263.216 27.9898L288.263 31.4512L313.619 36.879L338.838 44.1583L363.493 53.174L387.148 63.7653L409.4 75.7594L429.835 88.9611L448.166 80.6123L462.506 81.1873L479.088 93.9174L486.218 99.3913L499.535 111.868L506.745 118.619L519.199 131.176L526.145 139.353L537.714 152.98L551.87 175.243L561.23 197.564L565.773 213.802L567.567 220.207L572.075 243.586L570.844 266.114L563.645 287.262L550.363 306.501L531.021 323.279L505.836 337.09L475.213 347.451L439.736 353.971L400.212 356.34L357.617 354.374L313.079 348.049L267.839 337.469L223.186 322.911L180.396 304.787L140.664 283.628L105.061 260.088L74.495 234.846L49.6442 208.638M280.627 7.52033L313.148 14.5351L315.206 15.1331L345.473 23.8959L377.075 35.43L407.457 48.9652M520.717 167.596L523.673 185.087L522.166 201.773L516.06 217.274L505.342 231.201L490.082 243.172L470.498 252.843L446.935 259.904L419.865 264.101L389.897 265.263L357.755 263.296L324.245 258.202L290.252 250.072L256.673 239.112L224.416 225.623L194.333 209.972L167.194 192.596M415.035 233.489L418.416 226.187L423.89 220.598L436.907 207.327L439.621 206.143L462.828 196.058L492.646 194.08L522.166 201.761L547.189 218.034M96.3444 326.372L90.9625 310.571L93.9408 287.411L105.073 260.076L122.84 232.546L144.62 208.903L167.182 192.573M67.8712 61.5458L97.7243 63.1788L126.14 74.414L149.082 93.6184L163.387 118.021L167.205 144.171M68.2506 302.568L45.3892 277.728L36.6034 258.892L18.365 232.19L6.48585 205.855L1.00048 180.51L1.40294 155.234L13.0521 131.153L34.5221 111.696L62.8458 99.6902M62.8458 99.6902L93.9869 96.8844L123.495 103.646L144.011 116.836L147.219 118.895L160.03 137.524L161.985 140.376M62.8458 99.6902L68.4346 120.919L79.5778 142.998L96.1949 165.399L118.033 187.559L144.666 208.903L175.485 228.82L209.743 246.76L246.53 262.204L284.859 274.704L323.67 283.927L361.895 289.631L398.51 291.712L432.56 290.182L463.23 285.157L489.817 276.866M62.8458 99.6902L62.7307 79.7613L67.8942 61.5343M424.902 226.198L449.465 217.562L477.593 219.241L505.365 231.178L528.813 251.785M528.813 251.785L544.567 278.154M528.813 251.785L540.635 235.778L547.201 218.034M528.813 251.785L511.805 265.619L489.817 276.866M369.462 174.829L377.546 151.531L391.771 127.14L410.113 105.21L429.881 88.9381M45.4122 277.705L28.2316 252.498L18.3765 232.178L19.262 207.603M19.262 207.603L31.0146 182.166L52.1165 159.523L79.5662 142.987L109.373 134.937L137.237 136.42L159.294 147.034M19.262 207.603L38.0179 234.731L63.0757 261.583L93.9524 287.411L129.958 311.468L170.184 333.042L213.538 351.487L258.812 366.241L304.696 376.89L349.878 383.169L393.105 384.951L433.227 382.283M19.262 207.603L7.04932 180.89L1.41445 155.222L2.208 131.165L9.13069 109.2L13.8916 99.5178L20.3429 86.3966L32.6591 67.4682L50.1156 51.2421L68.6187 36.695L89.3755 24.1949L104.567 18.2495L113.973 14.5696L131.372 10.3953L141.814 7.88833L159.305 5.10539L187.249 1.7015L217.16 1.01151L229.085 9.01528M135.512 26.1843L158.098 41.9964L175.991 65.2832L186.617 92.7214L188.503 120.378L179.038 127.082L171.874 135.052L167.217 144.148L165.618 152.152L165.802 152.554M170.839 161.754L170.69 161.49L169.609 159.96L168.712 159.132L166.987 156.913L165.94 155.579L165.285 154.739L159.282 147.023L151.485 132.74L147.196 118.872L146.414 105.728L149.082 93.5839L155.039 82.6708L164.089 73.1835L175.968 65.2832L190.377 59.0849L206.983 54.6805L225.417 52.1046L245.3 51.3801L266.252 52.4956L287.883 55.4165L309.79 60.0624L331.593 66.3412L352.902 74.138L373.326 83.3262L392.496 93.7449L410.067 105.21L425.684 117.526L439.035 130.475L449.822 143.826L457.791 157.327L462.713 170.712L464.426 183.707L462.805 196.035L457.791 207.408L449.419 217.551L437.781 226.21L418.864 232.374L414.909 233.662L414.575 233.777M49.6327 208.627L69.9986 184.316L96.1488 165.388L124.231 154.555L150.197 153.244L164.974 159.201L167.987 160.42L170.46 161.421M405.605 238.158L426.765 243.505L446.935 259.858L463.196 285.146L473.12 315.827L475.213 347.439L469.221 375.372L456.135 395.681L437.954 405.708M256.155 156.637L277.522 160.972L298.75 167.021L319.45 174.657L339.264 183.764M402.063 228.245L400.683 206.729L409.09 183.316L426.259 161.283L449.845 143.826L476.466 133.476L502.283 131.671L523.661 138.548L537.725 152.98M217.125 1L248.451 2.96644L280.638 7.50882L285.721 14.7536L288.286 31.4512L287.906 55.4395L284.583 83.3147L278.787 110.994L271.381 134.431L263.469 150.323L256.167 156.66L235.042 154.118L214.538 153.428M32.6246 67.4912L52.2316 51.9436L77.9908 45.3658L106.361 48.8157L133.327 61.8793L155.05 82.7167L168.493 108.327L171.874 135.086L167.895 148.863L166.469 153.808M413.345 234.386L413.425 234.179L415.115 229.556L420.037 216.09L422.314 213.675L438.529 196.483L464.461 183.73L494.256 179.728L523.684 185.087L548.569 199.024L565.451 219.505L572.098 243.597M135.512 26.2188L119.091 36.4305L106.372 48.8157L97.7358 63.1903L93.5154 79.3243L93.9639 96.9073L99.2308 115.594L109.362 134.971L124.243 154.59L143.643 173.967L167.182 192.596L187.261 185.765L210.548 200.589L236.295 213.928L263.86 225.428L292.529 234.777L321.566 241.746L350.211 246.15L377.742 247.91L403.466 247.013L426.776 243.528L447.165 237.594L464.196 229.418L490.093 243.149L511.793 265.631L526.133 293.69L531.055 323.279L525.938 350.165L500.351 364.528M500.351 364.528L486.586 384.882L466.68 395.485L453.191 400.292L437.977 405.72L404.904 412.321L368.208 415L328.787 413.574L287.676 408.02L246.001 398.429L243.931 397.797L206.96 385.745L204.924 385.032L165.584 368.219L129.072 348.474L96.3673 326.372L68.2621 302.568L60.9713 285.261L36.615 258.892L38.0179 234.754L49.6671 208.65L31.0031 182.189L18.7905 156.154L13.0521 131.165L13.6616 107.763L20.3314 86.4082L40.8239 69.7106L52.243 51.9321L68.5956 36.695L92.6874 31.4512L111.466 20.032L135.512 26.2073L155.2 18.307L177.682 12.7872L202.475 9.69376L229.085 9.01528M500.351 364.528L505.871 337.078L502.203 306.386L489.817 276.866M500.351 364.528L469.245 375.372L433.227 382.283M229.085 9.01528L257.006 10.7287L285.744 14.7651L314.804 21.0209L343.702 29.3812L371.957 39.6964L399.096 51.8056L424.66 65.5132L448.189 80.6123L469.245 96.8499L487.414 113.973L502.283 131.682L513.495 149.668L520.717 167.584L544.924 179.142L548.569 199.013L547.189 218.045L564.186 240.573L557.252 260.295L544.544 278.165L550.375 306.501L545.579 332.789L525.926 350.176L511.667 370.634L486.575 384.894L456.146 395.704L420.969 402.649L381.847 405.421L339.747 403.834L295.772 397.831L251.153 387.527L207.155 373.187L165.02 355.213L125.945 334.134L90.9625 310.583L60.9598 285.261L63.0642 261.594L74.5065 234.846L93.757 208.891L117.998 187.559L143.654 173.944L167.01 169.838L187.272 185.742L202.141 189.077L215.608 197.633L221.944 201.658L243.793 212.974L267.161 222.714L291.459 230.637L316.069 236.548L340.379 240.297L363.781 241.815L385.699 241.09L405.122 238.238L405.513 238.135L406.997 237.353L408.354 237.054L412.712 236.134L413.977 235.778L423.131 233.156L447.177 237.583L470.521 252.809L489.817 276.866M229.085 9.01528L238.975 26.5868L245.346 51.4031L247.22 79.9453L244.322 108.039L237.1 131.625L226.67 147.414L214.561 153.417L195.069 154.613L177.486 157.557L176.969 157.706L170.379 159.707L169.85 159.96M433.227 382.283L439.759 353.96L439.529 321.68L432.549 290.182L419.888 264.078L403.466 247.001L385.688 241.09M433.227 382.283L420.98 402.626L404.892 412.309M169.149 158.672L170.264 157.384L181.511 144.367L188.514 120.39L200.048 115.065L213.388 111.201L228.246 108.856L244.311 108.039L261.273 108.764L278.798 110.994L296.554 114.674L314.217 119.734L331.467 126.071L347.969 133.58L363.424 142.124L377.535 151.542L390.023 161.674L400.626 172.334L409.113 183.316L415.277 194.413L406.778 217.896L408.319 236.732M2.18498 131.165L9.5792 116.054L13.6501 107.74L34.775 89.7315L62.7078 79.7498L93.5039 79.2899L122.782 88.4091L146.414 105.751L160.19 127.255L161.168 128.773L163.319 142.354L164.066 147.092M419.209 230.373L422.613 226.992L432.354 217.298L457.825 207.419L487.092 207.35L516.071 217.252L540.623 235.778L557.252 260.283L563.668 287.262L559.115 312.906M113.939 14.5581L133.845 11.2117L159.282 5.09388L177.67 12.7757L194.391 30.0827L207.006 54.692L213.653 83.1077L213.377 111.213L206.293 134.983L193.528 151.163L177.475 157.568L176.957 157.718M337.113 174.358L340.103 156.855L347.946 133.568L359.584 107.809L373.337 83.3377L387.171 63.7538L399.085 51.7941L407.457 48.9422L436.102 64.2713L456.031 77.0129L462.517 81.1643M389.782 218.16L381.801 204.694V184.983L390 161.662L405.352 138.03L425.695 117.526L448.074 103.129L469.233 96.8383L486.218 99.3798M363.746 241.826L377.719 247.898L389.897 265.251L398.475 291.735L402.109 323.658L400.212 356.352L393.082 384.974L381.835 405.421L368.174 415M429.835 88.9496L448.062 103.14L463.713 118.067L476.443 133.488L485.942 149.104L491.945 164.617L494.222 179.717L492.623 194.08L487.057 207.362L477.536 219.252L464.162 229.43L437.781 226.233L423.073 233.167M187.18 1.7015L202.417 9.69376L215.803 27.2768L225.382 52.1276L229.718 80.7043L228.177 108.856L221.035 132.533L209.409 148.46L195.012 154.624M340.322 240.32L350.165 246.15L357.721 263.296L361.826 289.665L361.803 321.6L357.594 354.408L349.832 383.215L339.712 403.857L328.741 413.609M337.09 174.392L353.523 183.592L368.519 193.769L374.752 205.752M316.034 236.594L321.531 241.769L324.222 258.225L323.613 283.984L319.714 315.482L313.056 348.095L304.638 376.959L295.726 397.877L287.607 408.066M291.39 230.695L292.471 234.811L290.194 250.106L284.778 274.761L276.935 305.397L267.805 337.515L258.743 366.299L251.096 387.573L245.921 398.464M248.393 3.01244L256.926 10.7633L263.182 28.0358L266.218 52.5646L265.528 80.8653L261.204 108.798L253.902 132.303L244.725 148.081L234.996 154.141M357.778 194.218L353.5 183.592L355.398 165.434L363.355 142.147L376.339 117.043L392.473 93.791L409.377 75.7824L424.603 65.5362L436.056 64.3058M129.003 348.497L125.887 334.146L129.889 311.503L140.618 283.651L156.58 254.66L175.405 228.855L194.287 209.984L210.513 200.6L221.898 201.704M418.381 226.21L419.991 216.113L418.91 205.453L437.183 185.064L462.713 170.77L491.933 164.663L520.683 167.63M313.113 14.5811L314.746 21.067L313.608 36.925L309.778 60.1314L303.787 87.3971L296.496 114.72L288.987 138.099L282.352 154.233L277.487 161.053M319.415 174.737L319.507 166.365L323.659 149.426L331.386 126.128L341.621 99.7707L352.868 74.2185L363.459 53.2316L371.888 39.7539L377.029 35.4761M165.515 368.277L164.974 355.259L170.126 333.111L180.361 304.833L194.23 274.566L209.662 246.817L224.37 225.658L236.249 213.963L243.747 213.031M369.404 174.898L381.778 185.064L392.277 195.77L400.66 206.81L406.744 217.976L410.355 229.05L410.941 235.571M544.521 278.234L526.099 293.759L502.168 306.466L473.108 315.919L439.506 321.761L402.098 323.716L361.814 321.634L319.714 315.493L276.958 305.408L234.743 291.643L194.253 274.566L156.614 254.694L122.828 232.604L93.7339 208.949L69.9986 184.385L52.0821 159.592L40.2259 135.19L34.4875 111.753L34.7635 89.8005L40.8009 69.7566L67.8596 61.5918L77.9793 45.4003L92.6644 31.4972L119.068 36.465L144.068 51.0581L164.089 73.2525L176.29 99.8858L179.016 127.14L172.035 151.232L167.711 156.154M89.3295 24.2408L111.443 20.078L133.822 11.2692L155.165 18.353L174.968 35.0736L190.366 59.1654L199.117 87.1901L199.991 115.123L192.965 138.996L181.465 144.424L172.012 151.243L167.677 156.131M410.964 235.536L410.355 229.027L418.922 205.464L415.242 194.471L433.066 173.265L457.802 157.384L485.954 149.139L513.484 149.702L536.495 158.891L551.87 175.289M345.462 23.9189L343.668 29.4042L338.838 44.1928L331.593 66.3987L322.946 92.8824L314.171 119.769L306.558 143.102L301.177 159.581M301.177 159.581L298.727 167.078M301.177 159.581L282.363 154.222L263.435 150.369L244.736 148.104L226.613 147.471L209.421 148.506L193.494 151.209L179.154 155.556L173.197 158.396L170.345 159.765M301.177 159.581L319.53 166.354L337.09 174.404L339.241 183.822L357.79 194.229L374.74 205.763L389.759 218.229L402.213 230.971L402.535 231.396L406.675 236.904L406.951 237.422M204.867 385.078L207.121 373.233L213.492 351.545L223.163 322.957L234.732 291.631L246.473 262.261L256.638 239.147L263.826 225.462L267.126 222.771M6.45132 205.901L7.00328 180.947L18.7559 156.188L40.2144 135.178L68.3886 120.976L99.2193 115.629L128.268 119.826L151.474 132.821L162.456 148.035L163.123 148.966L165.561 152.347M202.118 189.135L194.644 183.281L184.834 175.611L170.816 161.846L170.448 161.49L169.586 160.052L169.114 158.741L167.7 156.165V156.142L166.435 153.865L165.768 152.646L165.607 152.129L164.043 147.172L161.927 140.457L161.145 128.853L163.353 118.09L168.447 108.384L176.256 99.9087L186.559 92.8135L199.106 87.2131L213.595 83.1882L229.718 80.7848L247.151 80.0258L265.539 80.9113L284.537 83.3952L303.787 87.4316L322.934 92.9285L341.644 99.7938L359.561 107.901L376.362 117.101L391.714 127.244L405.329 138.134L416.921 149.587L426.236 161.386L433.055 173.311L437.183 185.121L438.483 196.575L436.873 207.419L432.319 217.413L424.844 226.313L419.175 230.499L416.932 232.155L414.989 233.593L414.552 233.915L413.299 234.501L410.953 235.605H410.93L408.296 237.192L407.135 237.859L405.456 238.273L405.065 238.376M402.523 231.477L402.201 231.051L393.025 216.424L392.266 195.828L400.568 172.46L416.909 149.622L439.012 130.613L463.69 118.193L487.368 114.088L506.722 118.734L523.626 138.674L536.472 158.971L544.878 179.257L561.207 197.691L565.405 219.62L564.14 240.688L570.821 266.24L566.428 291.24L559.068 313.044L545.545 332.915L530.975 353.534L511.621 370.761M179.131 155.636L192.942 139.065L206.235 135.098L221.035 132.648L237.031 131.74L253.902 132.384L271.335 134.546L288.987 138.168L306.547 143.182L323.682 149.495L340.069 156.993L355.409 165.537L369.404 174.979L368.507 193.873L381.766 204.855L393.025 216.435L402.029 228.406L405.157 234.214L406.663 236.996" stroke="white" stroke-linecap="round" stroke-linejoin="round"/>
</svg>